<svg width="160" height="29" viewBox="0 0 160 29" fill="none" xmlns="http://www.w3.org/2000/svg">
<path d="M13.0489 3.3001C13.3483 2.37879 14.6517 2.37879 14.9511 3.3001L16.9187 9.35583C17.0526 9.76785 17.4365 10.0468 17.8697 10.0468H24.2371C25.2058 10.0468 25.6086 11.2864 24.8249 11.8558L19.6736 15.5985C19.3231 15.8531 19.1764 16.3045 19.3103 16.7165L21.2779 22.7722C21.5773 23.6935 20.5228 24.4597 19.7391 23.8903L14.5878 20.1476C14.2373 19.893 13.7627 19.893 13.4122 20.1476L8.2609 23.8903C7.47719 24.4597 6.42271 23.6935 6.72206 22.7722L8.68969 16.7165C8.82356 16.3045 8.6769 15.8531 8.32642 15.5985L3.17511 11.8558C2.39139 11.2864 2.79417 10.0468 3.76289 10.0468H10.1303C10.5635 10.0468 10.9474 9.76785 11.0813 9.35583L13.0489 3.3001Z" fill="#0B385B"/>
<path d="M46.0489 3.3001C46.3483 2.37879 47.6517 2.37879 47.9511 3.3001L49.9187 9.35583C50.0526 9.76785 50.4365 10.0468 50.8697 10.0468H57.2371C58.2058 10.0468 58.6086 11.2864 57.8249 11.8558L52.6736 15.5985C52.3231 15.8531 52.1764 16.3045 52.3103 16.7165L54.2779 22.7722C54.5773 23.6935 53.5228 24.4597 52.7391 23.8903L47.5878 20.1476C47.2373 19.893 46.7627 19.893 46.4122 20.1476L41.2609 23.8903C40.4772 24.4597 39.4227 23.6935 39.7221 22.7722L41.6897 16.7165C41.8236 16.3045 41.6769 15.8531 41.3264 15.5985L36.1751 11.8558C35.3914 11.2864 35.7942 10.0468 36.7629 10.0468H43.1303C43.5635 10.0468 43.9474 9.76785 44.0813 9.35583L46.0489 3.3001Z" fill="#0B385B"/>
<path d="M79.0489 3.3001C79.3483 2.37879 80.6517 2.37879 80.9511 3.3001L82.9187 9.35583C83.0526 9.76785 83.4365 10.0468 83.8697 10.0468H90.2371C91.2058 10.0468 91.6086 11.2864 90.8249 11.8558L85.6736 15.5985C85.3231 15.8531 85.1764 16.3045 85.3103 16.7165L87.2779 22.7722C87.5773 23.6935 86.5228 24.4597 85.7391 23.8903L80.5878 20.1476C80.2373 19.893 79.7627 19.893 79.4122 20.1476L74.2609 23.8903C73.4772 24.4597 72.4227 23.6935 72.7221 22.7722L74.6897 16.7165C74.8236 16.3045 74.6769 15.8531 74.3264 15.5985L69.1751 11.8558C68.3914 11.2864 68.7942 10.0468 69.7629 10.0468H76.1303C76.5635 10.0468 76.9474 9.76785 77.0813 9.35583L79.0489 3.3001Z" fill="#0B385B"/>
<path d="M112.049 3.3001C112.348 2.37879 113.652 2.37879 113.951 3.3001L115.919 9.35583C116.053 9.76785 116.437 10.0468 116.87 10.0468H123.237C124.206 10.0468 124.609 11.2864 123.825 11.8558L118.674 15.5985C118.323 15.8531 118.176 16.3045 118.31 16.7165L120.278 22.7722C120.577 23.6935 119.523 24.4597 118.739 23.8903L113.588 20.1476C113.237 19.893 112.763 19.893 112.412 20.1476L107.261 23.8903C106.477 24.4597 105.423 23.6935 105.722 22.7722L107.69 16.7165C107.824 16.3045 107.677 15.8531 107.326 15.5985L102.175 11.8558C101.391 11.2864 101.794 10.0468 102.763 10.0468H109.13C109.563 10.0468 109.947 9.76785 110.081 9.35583L112.049 3.3001Z" fill="#0B385B"/>
<path d="M145.049 3.3001C145.348 2.37879 146.652 2.37879 146.951 3.3001L148.919 9.35583C149.053 9.76785 149.437 10.0468 149.87 10.0468H156.237C157.206 10.0468 157.609 11.2864 156.825 11.8558L151.674 15.5985C151.323 15.8531 151.176 16.3045 151.31 16.7165L153.278 22.7722C153.577 23.6935 152.523 24.4597 151.739 23.8903L146.588 20.1476C146.237 19.893 145.763 19.893 145.412 20.1476L140.261 23.8903C139.477 24.4597 138.423 23.6935 138.722 22.7722L140.69 16.7165C140.824 16.3045 140.677 15.8531 140.326 15.5985L135.175 11.8558C134.391 11.2864 134.794 10.0468 135.763 10.0468H142.13C142.563 10.0468 142.947 9.76785 143.081 9.35583L145.049 3.3001Z" fill="#0B385B"/>
</svg>
